<svg xmlns="http://www.w3.org/2000/svg" xmlns:xlink="http://www.w3.org/1999/xlink" preserveAspectRatio="xMidYMid" width="40" height="31" viewBox="0 0 40 31">
  <defs>
    <style>
      .cls-1 {
        fill: #fff;
        fill-rule: evenodd;
      }
    </style>
  </defs>
  <path d="M22.630,6.530 C20.164,6.530 18.584,7.296 18.584,8.512 C18.584,9.278 19.216,9.818 20.607,10.224 C21.176,10.404 21.808,10.584 22.503,10.764 L24.905,11.350 L27.307,11.981 L29.709,12.566 C34.892,13.828 38.305,17.071 38.305,20.494 C38.305,26.711 30.783,30.990 19.911,30.990 C9.671,30.990 3.098,28.197 -0.000,22.611 L12.136,20.945 C13.401,23.197 15.676,24.098 20.164,24.098 C22.945,24.098 24.842,23.197 24.842,21.891 C24.842,21.260 24.273,20.674 23.261,20.269 C23.072,20.179 22.883,20.134 22.756,20.089 L19.974,19.368 L17.257,18.647 L14.475,17.927 C8.091,16.260 5.057,13.692 5.057,9.818 C5.057,3.692 11.567,-0.002 22.314,-0.002 C31.289,-0.002 37.547,2.656 40.012,7.476 L29.140,9.458 C28.382,7.566 25.979,6.530 22.630,6.530 Z" class="cls-1"/>
</svg>
