<svg xmlns="http://www.w3.org/2000/svg" xmlns:xlink="http://www.w3.org/1999/xlink" preserveAspectRatio="xMidYMid" width="101" height="31" viewBox="0 0 101 31">
  <defs>
    <style>
      .cls-1 {
        fill: #fff;
        fill-rule: evenodd;
      }
    </style>
  </defs>
  <path d="M100.712,16.653 L97.485,30.463 L86.707,30.463 L89.532,18.334 C89.704,17.637 89.820,16.981 89.820,16.694 C89.820,15.629 88.898,15.096 87.168,15.096 C85.036,15.096 83.653,16.203 83.134,18.334 L80.253,30.463 L69.705,30.463 L74.489,10.261 L84.402,10.261 L83.595,13.539 C85.209,10.999 88.437,9.646 92.874,9.646 C97.716,9.646 101.000,11.654 101.000,14.605 C101.000,15.219 100.885,15.916 100.712,16.653 ZM68.505,2.678 L68.270,3.711 L71.593,3.711 L71.261,5.140 L67.937,5.140 L67.660,6.302 L71.787,6.302 L71.427,7.808 L64.628,7.808 L66.179,1.240 L72.799,1.240 L72.466,2.678 L68.505,2.678 ZM60.349,7.808 L60.973,5.169 L58.563,5.169 L57.940,7.808 L55.267,7.808 L56.818,1.240 L59.491,1.240 L58.923,3.662 L61.319,3.662 L61.887,1.240 L64.574,1.240 L63.022,7.808 L60.349,7.808 ZM53.521,2.727 L52.330,7.808 L49.643,7.808 L50.848,2.727 L48.868,2.727 L49.227,1.220 L55.903,1.220 L55.556,2.727 L53.521,2.727 ZM50.967,21.816 C50.621,23.210 50.621,23.456 50.621,23.783 C50.621,24.767 51.313,25.300 52.581,25.300 C55.001,25.300 56.615,23.620 57.422,20.259 L59.785,10.261 L70.562,10.261 L65.837,30.463 L55.578,30.463 L56.500,26.693 C53.848,29.807 51.197,30.996 46.875,30.996 C42.610,30.996 39.268,28.947 39.268,26.324 C39.268,25.669 39.498,24.398 39.844,22.882 L42.783,10.261 L53.733,10.261 L50.967,21.816 ZM22.595,6.505 C20.134,6.505 18.556,7.268 18.556,8.480 C18.556,9.243 19.187,9.781 20.576,10.185 C21.144,10.365 21.775,10.544 22.469,10.724 L24.868,11.307 L27.266,11.935 L29.664,12.519 C34.840,13.775 38.248,17.006 38.248,20.417 C38.248,26.609 30.737,30.872 19.881,30.872 C9.657,30.872 3.093,28.090 -0.000,22.525 L12.118,20.866 C13.381,23.109 15.653,24.007 20.134,24.007 C22.911,24.007 24.804,23.109 24.804,21.808 C24.804,21.180 24.236,20.596 23.226,20.192 C23.037,20.103 22.848,20.057 22.722,20.013 L19.944,19.295 L17.231,18.576 L14.453,17.859 C8.079,16.198 5.049,13.640 5.049,9.781 C5.049,3.678 11.550,-0.002 22.280,-0.002 C31.242,-0.002 37.491,2.646 39.952,7.447 L29.096,9.422 C28.339,7.537 25.940,6.505 22.595,6.505 Z" class="cls-1"/>
</svg>
